HIERARCHY
ROOT RootJoint
{
    OFFSET   0.000000   0.000000   0.000000
    CHANNELS 6 Xposition Yposition Zposition Xrotation Yrotation Zrotation
    JOINT pelvis_lowerback
    {
        OFFSET   0.000000   0.093605   0.000000
        CHANNELS 3 Xrotation Yrotation Zrotation
        JOINT lowerback_torso
        {
            OFFSET   0.000000   0.100000   0.000000
            CHANNELS 3 Xrotation Yrotation Zrotation
            JOINT torso_head
            {
                OFFSET   0.000000   0.282350   0.000000
                CHANNELS 3 Xrotation Yrotation Zrotation
                End Site
                {
                    OFFSET   0.000000   0.192650   0.000000
                }
            }
            JOINT rTorso_Clavicle
            {
                OFFSET  -0.001000   0.157500   0.000000
                CHANNELS 3 Xrotation Yrotation Zrotation
                JOINT rShoulder
                {
                    OFFSET  -0.117647   0.000000   0.000000
                    CHANNELS 3 Xrotation Yrotation Zrotation
                    JOINT rElbow
                    {
                        OFFSET  -0.245000   0.000000   0.000000
                        CHANNELS 3 Xrotation Yrotation Zrotation
                        JOINT rWrist
                        {
                            OFFSET  -0.240000   0.000000   0.000000
                            CHANNELS 3 Xrotation Yrotation Zrotation
                            End Site
                            {
                                OFFSET  -0.116353  -0.002500   0.000000
                            }
                        }
                    }
                }
            }
            JOINT lTorso_Clavicle
            {
                OFFSET   0.001000   0.157500   0.000000
                CHANNELS 3 Xrotation Yrotation Zrotation
                JOINT lShoulder
                {
                    OFFSET   0.117647   0.000000   0.000000
                    CHANNELS 3 Xrotation Yrotation Zrotation
                    JOINT lElbow
                    {
                        OFFSET   0.245000   0.000000   0.000000
                        CHANNELS 3 Xrotation Yrotation Zrotation
                        JOINT lWrist
                        {
                            OFFSET   0.240000   0.000000   0.000000
                            CHANNELS 3 Xrotation Yrotation Zrotation
                            End Site
                            {
                                OFFSET   0.116353  -0.002500   0.000000
                            }
                        }
                    }
                }
            }
        }
    }
    JOINT rHip
    {
        OFFSET  -0.100000  -0.051395   0.000000
        CHANNELS 3 Xrotation Yrotation Zrotation
        JOINT rKnee
        {
            OFFSET   0.000000  -0.410000   0.000000
            CHANNELS 3 Xrotation Yrotation Zrotation
            JOINT rAnkle
            {
                OFFSET   0.000000  -0.390000   0.000000
                CHANNELS 3 Xrotation Yrotation Zrotation
                JOINT rToeJoint
                {
                    OFFSET   0.000000  -0.050000   0.130000
                    CHANNELS 3 Xrotation Yrotation Zrotation
                    End Site
                    {
                        OFFSET  -0.010000   0.002000   0.060000
                    }
                }
            }
        }
    }
    JOINT lHip
    {
        OFFSET   0.100000  -0.051395   0.000000
        CHANNELS 3 Xrotation Yrotation Zrotation
        JOINT lKnee
        {
            OFFSET   0.000000  -0.410000   0.000000
            CHANNELS 3 Xrotation Yrotation Zrotation
            JOINT lAnkle
            {
                OFFSET   0.000000  -0.390000   0.000000
                CHANNELS 3 Xrotation Yrotation Zrotation
                JOINT lToeJoint
                {
                    OFFSET   0.000000  -0.050000   0.130000
                    CHANNELS 3 Xrotation Yrotation Zrotation
                    End Site
                    {
                        OFFSET   0.010000   0.002000   0.060000
                    }
                }
            }
        }
    }
}
MOTION
Frames: 12
Frame Time:   0.008333
 -2.631624   0.887430   4.085112 -12.890795  -1.395296  -4.927828  12.650995  -3.950097  -2.039665   1.576670  -6.841836   2.914961   3.024853  -3.657195   3.647766  -5.037702  -7.866493  -4.739472 -23.119641 -14.788424  33.189868   0.089136  86.061586  -0.091834  -5.774494   5.408628  -3.197689  -0.038367  -5.807875   1.804275  -8.441029 -22.006538 -40.363887 -179.999605 -79.260689 -179.993649  -3.896207  -6.594830  -2.346142   1.099237 -19.663643  -7.424354  35.342505  -0.000328  -0.009714  -9.172618 -10.459187   9.079514 -19.033906  -0.014753  -0.028335  -7.618094   9.875462   8.714990  37.025774  -0.000449   0.000955 -17.340617   0.165345  -1.468645  -0.574627  -0.000003  -0.000116
 -2.632653   0.886544   4.083445 -12.697382  -1.548138  -4.656568  12.689488  -3.793177  -1.962332   1.563322  -6.820139   2.979890   3.011623  -3.690046   3.525515  -5.079183  -7.578747  -4.610647 -24.017072 -14.936120  32.593302   0.092265  85.107395  -0.095739  -5.840283   5.445605  -3.231758  -0.094787  -5.694014   1.935294  -8.791826 -22.058806 -40.317474 179.997201 -78.818162 -179.995928  -3.788047  -6.561851  -2.370237   0.818357 -19.614281  -7.560763  35.299851  -0.000195  -0.007778 -10.271607 -10.665385   8.589557 -17.289676  -0.010584  -0.022371  -8.200078   9.856435   8.719923  37.617946  -0.001491   0.000821 -17.687753   0.317936  -1.617410  -0.409996  -0.000096   0.000035
 -2.633582   0.885842   4.081717 -12.541598  -1.720844  -4.352238  12.766416  -3.645027  -1.938402   1.561943  -6.791594   3.010071   3.007042  -3.726914   3.394111  -5.139382  -7.267385  -4.510643 -24.885251 -15.050729  32.017577   0.088042  84.183449  -0.091758  -5.911482   5.313491  -3.361223  -0.187466  -5.603465   2.101596  -9.150480 -22.121810 -40.250734 179.994670 -78.384234 -179.997705  -3.684265  -6.641722  -2.367730   0.501053 -19.560005  -7.765622  35.316543  -0.000183  -0.006224 -11.224204 -10.852097   8.114180 -15.683892  -0.006866  -0.018346  -8.780883   9.803329   8.818181  38.207652  -0.002970   0.000865 -18.013494   0.463337  -1.754094  -0.283593  -0.000301   0.000101
 -2.634380   0.885315   4.080027 -12.405801  -1.898071  -4.009449  12.849476  -3.507897  -1.953745   1.563742  -6.764510   3.005368   3.006878  -3.761752   3.264697  -5.203233  -6.963481  -4.435932 -25.707128 -15.139919  31.470927   0.080964  83.321548  -0.084609  -5.981344   5.160794  -3.506958  -0.290728  -5.529397   2.271053  -9.499435 -22.188062 -40.182191 179.992952 -77.973016 -179.999006  -3.585522  -6.769979  -2.345638   0.184087 -19.494207  -8.024939  35.325705  -0.000160  -0.004981 -12.088123 -11.028469   7.655727 -14.210015  -0.003814  -0.015369  -9.352420   9.729563   8.984657  38.754220  -0.004495   0.001097 -18.317288   0.600760  -1.880131  -0.169307  -0.000560   0.000143
 -2.635020   0.884942   4.078403 -12.283033  -2.075410  -3.630674  12.930901  -3.382282  -1.997273   1.563907  -6.741532   2.972340   3.007686  -3.794324   3.139882  -5.267991  -6.674150  -4.382276 -26.482525 -15.209578  30.952180   0.073264  82.520444  -0.076699  -6.047989   5.026199  -3.654543  -0.394040  -5.466999   2.433127  -9.831721 -22.254627 -40.117783 179.991818 -77.586486 179.999981  -3.491307  -6.915573  -2.314217  -0.126981 -19.416518  -8.333458  35.315197  -0.000115  -0.003983 -12.882237 -11.197861   7.214385 -12.858441  -0.001371  -0.013096  -9.913298   9.639828   9.204940  39.255248  -0.005891   0.001438 -18.600831   0.730526  -1.996465  -0.065426  -0.000826   0.000173
 -2.635481   0.884701   4.076853 -12.170798  -2.250869  -3.220505  13.008662  -3.268007  -2.060124   1.561773  -6.723185   2.918065   3.008306  -3.824768   3.020672  -5.332591  -6.401306  -4.346103 -27.213107 -15.263599  30.460208   0.065703  81.775887  -0.068893  -6.111192   4.914326  -3.803673  -0.493269  -5.413543   2.584787 -10.145050 -22.320139 -40.059040 179.991063 -77.224319 179.999132  -3.401259  -7.065879  -2.280194  -0.430988 -19.327524  -8.686876  35.284603  -0.000057  -0.003181 -13.615459 -11.361796   6.789903 -11.619342   0.000559  -0.011327 -10.461316   9.536857   9.468776  39.713943  -0.007081   0.001820 -18.865531   0.852930  -2.103909   0.029025  -0.001073   0.000193
 -2.635750   0.884571   4.075380 -12.067766  -2.422994  -2.783903  13.082196  -3.164640  -2.135152   1.557772  -6.709409   2.848960   3.008490  -3.853227   2.907527  -5.396268  -6.145293  -4.324224 -27.900710 -15.304873  29.994152   0.058546  81.083578  -0.061514  -6.171108   4.822722  -3.954727  -0.586943  -5.367304   2.725647 -10.439144 -22.383892 -40.005995 179.990550 -76.885465 179.998383  -3.315104  -7.215590  -2.246987  -0.727635 -19.228065  -9.080873  35.235929   0.000001  -0.002537 -14.293677 -11.521151   6.381912 -10.483454   0.002063  -0.009925 -10.994496   9.422731   9.767845  40.134073  -0.008031   0.002197 -19.112658   0.968273  -2.203189   0.114921  -0.001285   0.000207
 -2.636204   0.884119   4.073771 -12.016632  -2.715953  -2.504927  13.171790  -3.050408  -2.192578   1.631386  -6.604244   2.845562   3.065228  -3.935322   2.821320  -5.425232  -5.768377  -4.321808 -28.687248 -15.281215  29.418483   0.054016  80.176514  -0.055971  -6.172415   4.793033  -4.116518  -0.739600  -5.404027   2.962264 -10.873360 -22.600452 -39.925523 179.988545 -76.516571 179.996690  -3.171229  -7.210818  -2.080390  -1.146986 -19.117038  -9.400209  35.495353  -0.000400  -0.002367 -14.805610 -11.547063   6.040233  -9.381435   0.002903  -0.009343 -11.436886   9.235162  10.392290  40.496025  -0.009191   0.002319 -19.196585   1.266937  -2.307712   0.106466  -0.000971   0.000155
 -2.636690   0.883494   4.072206 -11.978005  -3.033074  -2.254370  13.261143  -2.963206  -2.266261   1.702899  -6.513405   2.838370   3.129151  -4.013403   2.737796  -5.462224  -5.375134  -4.341270 -29.436225 -15.226386  28.876153   0.050668  79.319441  -0.051550  -6.174237   4.700319  -4.267143  -0.928367  -5.486998   3.215154 -11.323761 -22.837550 -39.841879 179.986913 -76.155687 179.995263  -3.031297  -7.285920  -1.891725  -1.592813 -19.013787  -9.714188  35.836774  -0.000895  -0.002455 -15.319716 -11.546401   5.735644  -8.742587   0.002882  -0.008474 -11.811993   9.004960  11.145269  40.814206  -0.010121   0.002417 -19.271475   1.550110  -2.402081   0.117236  -0.000862   0.000135
 -2.637105   0.882795   4.070725 -11.935834  -3.351303  -2.000966  13.338948  -2.905857  -2.354350   1.759816  -6.449358   2.814702   3.189170  -4.087004   2.656494  -5.501348  -4.994765  -4.369156 -30.141140 -15.157841  28.369320   0.048145  78.523125  -0.048058  -6.175212   4.620534  -4.405821  -1.123655  -5.594934   3.456210 -11.765813 -23.078223 -39.767175 179.985852 -75.812370 179.994143  -2.897147  -7.411477  -1.698885  -2.046235 -18.908922 -10.040365  36.194632  -0.001301  -0.002577 -15.846170 -11.539717   5.456931  -8.100056   0.002779  -0.007826 -12.137379   8.756226  11.957270  41.101105  -0.010761   0.002523 -19.340427   1.815967  -2.488507   0.131775  -0.000815   0.000122
 -2.637384   0.882080   4.069328 -11.886297  -3.665651  -1.737179  13.405052  -2.874293  -2.451015   1.803606  -6.410518   2.776394   3.243111  -4.156333   2.578017  -5.540413  -4.637000  -4.401617 -30.802426 -15.084306  27.894383   0.045916  77.782900  -0.045000  -6.174998   4.562554  -4.542537  -1.313358  -5.716509   3.677646 -12.189701 -23.315842 -39.704571 179.985232 -75.488778 179.993232  -2.768591  -7.560964  -1.512449  -2.502261 -18.801471 -10.384406  36.545374  -0.001582  -0.002670 -16.371449 -11.535704   5.198968  -7.451858   0.002660  -0.007359 -12.420604   8.501123  12.794120  41.364628  -0.011139   0.002622 -19.404212   2.065229  -2.568029   0.147322  -0.000792   0.000112
 -2.637489   0.881384   4.068004 -11.828467  -3.972987  -1.461986  13.461835  -2.864858  -2.550952   1.838045  -6.393659   2.728166   3.291315  -4.221566   2.503016  -5.578357  -4.305200  -4.437139 -31.421805 -15.010200  27.448267   0.043639  77.093852  -0.042043  -6.173953   4.520832  -4.682875  -1.492896  -5.844943   3.879093 -12.591668 -23.546895 -39.653410 179.984920 -75.185031 179.992465  -2.645370  -7.720398  -1.337656  -2.957818 -18.688858 -10.746729  36.877729  -0.001735  -0.002709 -16.883680 -11.534758   4.957412  -6.803937   0.002559  -0.006994 -12.667675   8.245876  13.635167  41.609644  -0.011296   0.002700 -19.463366   2.298714  -2.641387   0.162668  -0.000776   0.000103
